HIERARCHY
ROOT Hips
{
	OFFSET 0.000000 0.000000 0.000000
	CHANNELS 6 Xposition Yposition Zposition Zrotation Yrotation Xrotation 
	JOINT LHipJoint
	{
		OFFSET 0.000000 0.000000 0.000000
		CHANNELS 3 Zrotation Yrotation Xrotation
		JOINT LeftUpLeg
		{
			OFFSET 1.363060 -1.794630 0.839290
			CHANNELS 3 Zrotation Yrotation Xrotation
			JOINT LeftLeg
			{
				OFFSET 2.448110 -6.726130 0.000000
				CHANNELS 3 Zrotation Yrotation Xrotation
				JOINT LeftFoot
				{
					OFFSET 2.562200 -7.039590 0.000000
					CHANNELS 3 Zrotation Yrotation Xrotation
					JOINT LeftToeBase
					{
						OFFSET 0.157640 -0.433110 2.322550
						CHANNELS 3 Zrotation Yrotation Xrotation
						End Site
						{
							OFFSET 0.000000 0.000000 0.000000
						}
					}
				}
			}
		}
	}
	JOINT RHipJoint
	{
		OFFSET 0.000000 0.000000 0.000000
		CHANNELS 3 Zrotation Yrotation Xrotation
		JOINT RightUpLeg
		{
			OFFSET -1.305520 -1.794630 0.839290
			CHANNELS 3 Zrotation Yrotation Xrotation
			JOINT RightLeg
			{
				OFFSET -2.542530 -6.985550 0.000000
				CHANNELS 3 Zrotation Yrotation Xrotation
				JOINT RightFoot
				{
					OFFSET -2.568260 -7.056230 0.000000
					CHANNELS 3 Zrotation Yrotation Xrotation
					JOINT RightToeBase
					{
						OFFSET -0.164730 -0.452590 2.363150
						CHANNELS 3 Zrotation Yrotation Xrotation
						End Site
						{
							OFFSET 0.000000 0.000000 0.000000
						}
					}
				}
			}
		}
	}
	JOINT LowerBack
	{
		OFFSET 0.000000 0.000000 0.000000
		CHANNELS 3 Zrotation Yrotation Xrotation
		JOINT Spine
		{
			OFFSET 0.028270 2.035590 -0.193380
			CHANNELS 3 Zrotation Yrotation Xrotation
			JOINT Spine1
			{
				OFFSET 0.056720 2.048850 -0.042750
				CHANNELS 3 Zrotation Yrotation Xrotation
				JOINT Neck
				{
					OFFSET 0.000000 0.000000 0.000000
					CHANNELS 3 Zrotation Yrotation Xrotation
					JOINT Neck1
					{
						OFFSET -0.054170 1.746240 0.172020
						CHANNELS 3 Zrotation Yrotation Xrotation
						JOINT Head
						{
							OFFSET 0.104070 1.761360 -0.123970
							CHANNELS 3 Zrotation Yrotation Xrotation
							End Site
							{
								OFFSET 0.000000 0.000000 0.000000
							}
						}
					}
				}
				JOINT LeftShoulder
				{
					OFFSET 0.000000 0.000000 0.000000
					CHANNELS 3 Zrotation Yrotation Xrotation
					JOINT LeftArm
					{
						OFFSET 3.362410 1.200890 -0.311210
						CHANNELS 3 Zrotation Yrotation Xrotation
						JOINT LeftForeArm
						{
							OFFSET 4.983000 -0.000000 -0.000000
							CHANNELS 3 Zrotation Yrotation Xrotation
							JOINT LeftHand
							{
								OFFSET 3.483560 -0.000000 -0.000000
								CHANNELS 3 Zrotation Yrotation Xrotation
								JOINT LeftFingerBase
								{
									OFFSET 0.000000 0.000000 0.000000
									CHANNELS 3 Zrotation Yrotation Xrotation
									JOINT LeftHandIndex1
									{
										OFFSET 0.715260 -0.000000 -0.000000
										CHANNELS 3 Zrotation Yrotation Xrotation
										End Site
										{
											OFFSET 0.000000 0.000000 0.000000
										}
									}
								}
								JOINT LThumb
								{
									OFFSET 0.000000 0.000000 0.000000
									CHANNELS 3 Zrotation Yrotation Xrotation
									End Site
									{
										OFFSET 0.000000 0.000000 0.000000
									}
								}
							}
						}
					}
				}
				JOINT RightShoulder
				{
					OFFSET 0.000000 0.000000 0.000000
					CHANNELS 3 Zrotation Yrotation Xrotation
					JOINT RightArm
					{
						OFFSET -3.136600 1.374050 -0.404650
						CHANNELS 3 Zrotation Yrotation Xrotation
						JOINT RightForeArm
						{
							OFFSET -5.241900 -0.000000 -0.000000
							CHANNELS 3 Zrotation Yrotation Xrotation
							JOINT RightHand
							{
								OFFSET -3.444170 -0.000000 -0.000000
								CHANNELS 3 Zrotation Yrotation Xrotation
								JOINT RightFingerBase
								{
									OFFSET 0.000000 0.000000 0.000000
									CHANNELS 3 Zrotation Yrotation Xrotation
									JOINT RightHandIndex1
									{
										OFFSET -0.622530 -0.000000 -0.000000
										CHANNELS 3 Zrotation Yrotation Xrotation
										End Site
										{
											OFFSET 0.000000 0.000000 0.000000
										}
									}
								}
								JOINT RThumb
								{
									OFFSET 0.000000 0.000000 0.000000
									CHANNELS 3 Zrotation Yrotation Xrotation
									End Site
									{
										OFFSET 0.000000 0.000000 0.000000
									}
								}
							}
						}
					}
				}
			}
		}
	}
}
MOTION
Frames: 10
Frame Time: 0.033333
-2.210350 16.253289 23.260091 1.480255 7.634884 9.063652 -4.442885 4.013258 -6.173273 -16.947818 -1.522731 -2.834088 -9.695381 -12.774327 -32.890256 0.554817 12.668032 27.549859 0.000000 0.000000 0.000000 13.368699 4.485652 -5.569623 1.204354 -4.655178 1.113791 3.758563 -28.900317 44.928116 15.896363 -23.203036 0.057494 0.000000 0.000000 0.000000 -6.745504 -1.562741 18.929320 3.523109 -1.594335 -4.912837 2.384347 -0.935877 -5.790492 -2.528791 0.653664 -1.093852 5.260181 -0.229777 6.573903 0.000000 0.000000 0.000000 9.951975 12.980912 6.938033 -71.935960 -6.551948 24.600439 -23.125083 -77.131896 0.605961 -0.082785 -14.655040 0.298706 -0.067303 -14.663700 0.000000 0.000000 0.000000 0.000000 0.000000 0.000000 0.000000 -5.343514 -18.015187 5.067469 68.356031 6.650269 19.683231 26.916489 66.962166 0.352452 0.661596 11.374904 0.174740 0.655368 11.379640 0.000000 0.000000 0.000000 0.000000 0.000000 0.000000 0.000000 
-2.226232 16.276706 23.453318 1.765675 7.394906 9.313660 -4.049685 3.906028 -6.565448 -17.677717 -1.211331 -2.235173 -9.289215 -12.478780 -32.215901 0.384065 11.644252 25.292199 0.000000 0.000000 0.000000 13.405285 4.427832 -5.259453 1.026711 -4.570408 1.000749 3.437974 -28.729313 44.831648 16.285763 -24.681378 2.235554 0.000000 0.000000 0.000000 -6.918018 -1.415463 19.188813 3.275708 -1.649527 -4.604940 2.416169 -0.848784 -6.487645 -3.010256 0.717977 -0.189512 5.310552 -0.273256 7.003250 0.000000 0.000000 0.000000 9.924591 13.754203 6.682250 -71.851703 -6.679057 25.389096 -23.916207 -76.750385 0.636960 -0.323356 -14.612052 0.314448 -0.313056 -14.621675 0.000000 0.000000 0.000000 0.000000 0.000000 0.000000 0.000000 -4.800450 -18.975136 4.638952 67.728118 6.704365 19.984158 27.747959 66.123128 0.355526 0.799617 11.290717 0.176345 0.794650 11.295580 0.000000 0.000000 0.000000 0.000000 0.000000 0.000000 0.000000 
-2.238919 16.303715 23.645997 2.039988 7.145948 9.565422 -3.675967 3.828362 -6.968967 -18.394522 -0.920044 -1.697680 -8.907344 -12.128275 -31.403793 0.239002 10.603524 22.973205 0.000000 0.000000 0.000000 13.456387 4.292290 -4.886129 0.844982 -4.448004 0.804922 3.104108 -28.516502 44.702683 16.636574 -26.171758 4.396369 0.000000 0.000000 0.000000 -7.091218 -1.258628 19.400826 3.073093 -1.691899 -4.358617 2.422860 -0.753180 -7.102666 -3.377934 0.773724 0.619450 5.328194 -0.307590 7.348274 0.000000 0.000000 0.000000 9.872782 14.429009 6.458829 -71.774289 -6.813577 26.107413 -24.619600 -76.380972 0.665136 -0.530838 -14.572543 0.328747 -0.525124 -14.582955 0.000000 0.000000 0.000000 0.000000 0.000000 0.000000 0.000000 -4.374679 -19.789197 4.254215 67.220515 6.685838 20.404133 28.281694 65.790208 0.361805 0.905430 11.284639 0.179513 0.901433 11.289640 0.000000 0.000000 0.000000 0.000000 0.000000 0.000000 0.000000 
-2.247212 16.333798 23.837418 2.303358 6.892922 9.817114 -3.325559 3.782056 -7.380489 -19.094183 -0.652287 -1.224932 -8.564642 -11.725372 -30.453976 0.118684 9.555633 20.609109 0.000000 0.000000 0.000000 13.519195 4.079701 -4.452531 0.658032 -4.290085 0.528920 2.756125 -28.263137 44.547255 16.942518 -27.658500 6.519659 0.000000 0.000000 0.000000 -7.258736 -1.092225 19.563120 2.906363 -1.722689 -4.155231 2.401516 -0.651031 -7.646574 -3.640646 0.821469 1.342169 5.328561 -0.334477 7.630536 0.000000 0.000000 0.000000 9.800969 15.009649 6.263814 -71.701906 -6.957619 26.761829 -25.242488 -76.024069 0.690755 -0.708360 -14.536567 0.341738 -0.706689 -14.547632 0.000000 0.000000 0.000000 0.000000 0.000000 0.000000 0.000000 -4.063457 -20.470181 3.907303 66.836506 6.584231 20.961854 28.532017 65.972166 0.371963 0.984281 11.360162 0.184584 0.981066 11.365332 0.000000 0.000000 0.000000 0.000000 0.000000 0.000000 0.000000 
-2.251070 16.366476 24.026974 2.554955 6.640508 10.067748 -3.000891 3.769070 -7.796907 -19.773447 -0.411424 -0.820274 -8.263491 -11.273134 -29.369396 0.021211 8.507282 18.217422 0.000000 0.000000 0.000000 13.591495 3.788715 -3.961142 0.466269 -4.096948 0.173823 2.401500 -27.971527 44.368937 17.203909 -29.130698 8.583614 0.000000 0.000000 0.000000 -7.416964 -0.915362 19.673940 2.771593 -1.741036 -3.982719 2.351190 -0.544604 -8.127352 -3.797998 0.857727 1.984372 5.322187 -0.355462 7.864011 0.000000 0.000000 0.000000 9.711477 15.497000 6.094326 -71.634874 -7.111595 27.356908 -25.790583 -75.680378 0.714033 -0.858349 -14.503996 0.353534 -0.860220 -14.515610 0.000000 0.000000 0.000000 0.000000 0.000000 0.000000 0.000000 -3.869083 -21.023826 3.591331 66.581539 6.388299 21.668388 28.486027 66.686253 0.386480 1.037005 11.520968 0.191797 1.034431 11.526354 0.000000 0.000000 0.000000 0.000000 0.000000 0.000000 0.000000 
-2.254862 16.397876 24.209179 2.786202 6.424124 10.285748 -2.698626 3.735154 -8.204448 -20.398930 -0.171434 -0.420892 -7.973069 -10.820292 -28.296775 -0.048947 7.528627 15.942277 0.000000 0.000000 0.000000 13.692015 3.571996 -3.514058 0.248642 -3.992023 -0.093448 2.067634 -27.707881 44.131357 17.417319 -30.560617 10.547583 0.000000 0.000000 0.000000 -7.604740 -0.765589 19.786811 2.681282 -1.752763 -3.854830 2.334885 -0.457262 -8.466934 -3.873526 0.884482 2.463137 5.322486 -0.371005 8.047961 0.000000 0.000000 0.000000 9.711655 15.834188 5.956858 -71.611817 -7.296503 27.825820 -26.088741 -75.550129 0.729623 -0.939790 -14.525684 0.361378 -0.943599 -14.537650 0.000000 0.000000 0.000000 0.000000 0.000000 0.000000 0.000000 -3.816161 -21.425700 3.296508 66.483447 6.178991 22.410041 28.213230 67.706801 0.402542 1.063132 11.724213 0.199758 1.061035 11.729829 0.000000 0.000000 0.000000 0.000000 0.000000 0.000000 0.000000 
-2.258146 16.427437 24.383776 2.996607 6.243179 10.471297 -2.418488 3.675689 -8.600730 -20.965538 0.071248 -0.021095 -7.701298 -10.374629 -27.256880 -0.097066 6.625664 13.797639 0.000000 0.000000 0.000000 13.820552 3.432583 -3.113073 0.008802 -3.971382 -0.270473 1.752590 -27.476646 43.844960 17.580266 -31.935089 12.403600 0.000000 0.000000 0.000000 -7.822922 -0.644650 19.899401 2.634466 -1.754763 -3.764921 2.354963 -0.389078 -8.663610 -3.867835 0.900808 2.772122 5.333838 -0.382307 8.188704 0.000000 0.000000 0.000000 9.810204 16.016015 5.848309 -71.637858 -7.509869 28.167307 -26.129692 -75.650490 0.737467 -0.953275 -14.603933 0.365239 -0.957403 -14.616078 0.000000 0.000000 0.000000 0.000000 0.000000 0.000000 0.000000 -3.909466 -21.673219 3.016451 66.553343 5.955924 23.175160 27.685360 69.036467 0.419958 1.058092 11.968341 0.208367 1.056257 11.974200 0.000000 0.000000 0.000000 0.000000 0.000000 0.000000 0.000000 
-2.261349 16.454825 24.550242 3.186485 6.094229 10.626007 -2.160798 3.588397 -8.983191 -21.470195 0.318648 0.381066 -7.446567 -9.942864 -26.268988 -0.127909 5.802210 11.796840 0.000000 0.000000 0.000000 13.974970 3.369083 -2.758293 -0.248242 -4.027322 -0.360335 1.458604 -27.280784 43.519471 17.693803 -33.243158 14.143941 0.000000 0.000000 0.000000 -8.068590 -0.552952 20.009618 2.626894 -1.744629 -3.706734 2.409124 -0.338841 -8.723201 -3.789457 0.909665 2.917004 5.356825 -0.390268 8.292445 0.000000 0.000000 0.000000 10.009963 16.045480 5.764391 -71.711316 -7.749008 28.379693 -25.918570 -75.979628 0.737465 -0.900383 -14.735848 0.365066 -0.903186 -14.748000 0.000000 0.000000 0.000000 0.000000 0.000000 0.000000 0.000000 -4.145028 -21.772116 2.743513 66.792325 5.721311 23.940910 26.882944 70.651775 0.438150 1.016968 12.247047 0.217330 1.015096 12.253153 0.000000 0.000000 0.000000 0.000000 0.000000 0.000000 0.000000 
-2.265050 16.479563 24.708396 3.358810 5.974392 10.747860 -1.925181 3.468136 -9.348631 -21.911928 0.575649 0.794589 -7.206048 -9.533112 -25.356586 -0.145200 5.061030 9.949205 0.000000 0.000000 0.000000 14.153223 3.388505 -2.452180 -0.521361 -4.158725 -0.355636 1.188538 -27.125994 43.160636 17.762363 -34.479600 15.765868 0.000000 0.000000 0.000000 -8.336516 -0.494839 20.113938 2.650293 -1.720040 -3.677235 2.488476 -0.308151 -8.636613 -3.657813 0.921617 2.894450 5.387184 -0.394803 8.362245 0.000000 0.000000 0.000000 10.326258 15.910868 5.701661 -71.825648 -8.015200 28.438662 -25.433672 -76.551584 0.728129 -0.772922 -14.921581 0.360094 -0.772442 -14.933519 0.000000 0.000000 0.000000 0.000000 0.000000 0.000000 0.000000 -4.528160 -21.714397 2.471480 67.222027 5.480091 24.677651 25.764601 72.548937 0.456390 0.930379 12.554991 0.226274 0.928025 12.561328 0.000000 0.000000 0.000000 0.000000 0.000000 0.000000 0.000000 
-2.265771 16.504485 24.862738 3.521303 5.819903 10.866217 -1.713565 3.385981 -9.696412 -22.326754 0.813062 1.150729 -6.996949 -9.102539 -24.399739 -0.156793 4.354092 8.142927 0.000000 0.000000 0.000000 14.338553 3.374088 -2.120526 -0.803044 -4.269186 -0.392021 0.895705 -26.954222 42.815145 17.739080 -35.610507 17.343224 0.000000 0.000000 0.000000 -8.604265 -0.443436 20.174568 2.687914 -1.697111 -3.653339 2.584283 -0.284311 -8.548461 -3.523575 0.926633 2.859803 5.421265 -0.398953 8.415536 0.000000 0.000000 0.000000 10.597650 15.783126 5.659505 -71.935442 -8.244291 28.453210 -24.963847 -77.076932 0.717624 -0.647168 -15.088914 0.354548 -0.643360 -15.100579 0.000000 0.000000 0.000000 0.000000 0.000000 0.000000 0.000000 -4.850722 -21.658745 2.238297 67.559314 5.308119 25.207585 24.812797 74.030259 0.469433 0.847437 12.789196 0.232642 0.844480 12.795684 0.000000 0.000000 0.000000 0.000000 0.000000 0.000000 0.000000 
